<svg xmlns="http://www.w3.org/2000/svg" viewBox="0 0 64 64" fill="none">
  <!-- Background -->
  <rect width="64" height="64" fill="#FF8A00" rx="12"/>
  
  <!-- Water waves -->
  <path d="M4 52C8 50 12 50 16 52C20 54 24 54 28 52C32 50 36 50 40 52C44 54 48 54 52 52C56 50 60 50 64 52" 
        stroke="#FFF" stroke-width="2" stroke-linecap="round" opacity="0.3"/>
  <path d="M4 56C8 54 12 54 16 56C20 58 24 58 28 56C32 54 36 54 40 56C44 58 48 58 52 56C56 54 60 54 64 56" 
        stroke="#FFF" stroke-width="2" stroke-linecap="round" opacity="0.3"/>
  
  <!-- Stone bridge - bottom row -->
  <ellipse cx="8" cy="48" rx="3.5" ry="2.5" fill="#FFF" opacity="0.95"/>
  <ellipse cx="16" cy="46" rx="4" ry="3" fill="#FFF" opacity="0.9"/>
  <ellipse cx="24" cy="44" rx="3.5" ry="2.5" fill="#FFF" opacity="0.95"/>
  <ellipse cx="32" cy="42" rx="4" ry="3" fill="#FFF" opacity="0.9"/>
  <ellipse cx="40" cy="44" rx="3.5" ry="2.5" fill="#FFF" opacity="0.95"/>
  <ellipse cx="48" cy="46" rx="4" ry="3" fill="#FFF" opacity="0.9"/>
  <ellipse cx="56" cy="48" rx="3.5" ry="2.5" fill="#FFF" opacity="0.95"/>
  
  <!-- Middle row -->
  <ellipse cx="12" cy="38" rx="3.5" ry="2.5" fill="#FFF" opacity="0.85"/>
  <ellipse cx="20" cy="36" rx="4" ry="2.8" fill="#FFF" opacity="0.8"/>
  <ellipse cx="28" cy="34" rx="3.5" ry="2.5" fill="#FFF" opacity="0.85"/>
  <ellipse cx="36" cy="32" rx="4" ry="2.8" fill="#FFF" opacity="0.8"/>
  <ellipse cx="44" cy="34" rx="3.5" ry="2.5" fill="#FFF" opacity="0.85"/>
  <ellipse cx="52" cy="36" rx="4" ry="2.8" fill="#FFF" opacity="0.8"/>
  
  <!-- Top row -->
  <ellipse cx="16" cy="28" rx="3" ry="2.2" fill="#FFF" opacity="0.75"/>
  <ellipse cx="24" cy="26" rx="3.5" ry="2.5" fill="#FFF" opacity="0.7"/>
  <ellipse cx="32" cy="24" rx="3" ry="2.2" fill="#FFF" opacity="0.75"/>
  <ellipse cx="40" cy="26" rx="3.5" ry="2.5" fill="#FFF" opacity="0.7"/>
  <ellipse cx="48" cy="28" rx="3" ry="2.2" fill="#FFF" opacity="0.75"/>
  
  <!-- Peak stones -->
  <ellipse cx="20" cy="20" rx="2.8" ry="2" fill="#FFF" opacity="0.65"/>
  <ellipse cx="28" cy="18" rx="3" ry="2.2" fill="#FFF" opacity="0.6"/>
  <ellipse cx="36" cy="18" rx="3" ry="2.2" fill="#FFF" opacity="0.6"/>
  <ellipse cx="44" cy="20" rx="2.8" ry="2" fill="#FFF" opacity="0.65"/>
  
  <!-- Top accent -->
  <ellipse cx="32" cy="14" rx="2.5" ry="1.8" fill="#FFF" opacity="0.55"/>
</svg>
